# xmcd
#
# Track frame offsets:
#	150
#	13506
#	26869
#	39401
#	52173
#	62795
#	77054
#	89786
#	102525
#	114838
#	127184
#	139050
#	151437
#	163086
#	174322
#	188030
#	200159
#	212571
#	224556
#	236881
#	246907
#
# Disc length: 3450 seconds
#
# Revision: 0
# Processed by: cddbd v1.4PL0 Copyright (c) Steve Scherf et al.
# Submitted via: dBpowerAMP V4.0
#
DISCID=3f0d7815
DTITLE=Various Artist - Country Hits Volume 1
DYEAR=2000
DGENRE=Country
TTITLE0=Tex Williams - Smoke! Smoke! Smoke! That Cigarette
TTITLE1=Merle Travis - So Round, So Firm, So Fully Packed
TTITLE2=Gene Autry - At Mail Call Today
TTITLE3=Tex Ritter - I'm Wasting My Tears On You
TTITLE4=Roy Rogers - You Waited Too Long
TTITLE5=Ernest Tuibb - Rainbow At Midnight
TTITLE6=Bob Wills - New Spanish Two Step
TTITLE7=Al Dexter - Wine, Women and Song
TTITLE8=Bill Monroe - Kentucky Waltz
TTITLE9=Delmore Brothers - Freight Train Boogie
TTITLE10=Floyd Tillman - Drivin' Nails In My Coffin
TTITLE11=Hank Williams - Move It On Over
TTITLE12=Eddy Arnold - Bouquet Of Roses
TTITLE13=Jack Guthrie - Oakie Boogie
TTITLE14=Merle Travis - Divorce Me C.O.D.
TTITLE15=Red Foley - Tennessee Saturday Night
TTITLE16=Sons Of The Pioneers - Cool Water
TTITLE17=Spade Cooley - Crazy 'Cause I Love You
TTITLE18=Hank Williams - Lovesick Blues
TTITLE19=Margaret Whiting and Jimmy Wakely - Slippin' Around
TTITLE20=Red Ingle - Cigareets, Whusky and Wild Wild Women
EXTD=compilation issued 2000 by ABM (UK]\ncatalog no. ABMMCD1258\n			
EXTT0=
EXTT1=
EXTT2=
EXTT3=
EXTT4=
EXTT5=
EXTT6=
EXTT7=
EXTT8=
EXTT9=
EXTT10=
EXTT11=
EXTT12=
EXTT13=
EXTT14=
EXTT15=
EXTT16=
EXTT17=
EXTT18=
EXTT19=
EXTT20=
PLAYORDER=
